<?xml version="1.0" encoding="UTF-8" standalone="no"?>
<svg width="352px" height="60px" viewBox="0 0 352 60" version="1.1" xmlns="http://www.w3.org/2000/svg" xmlns:xlink="http://www.w3.org/1999/xlink" xmlns:sketch="http://www.bohemiancoding.com/sketch/ns">
    <title>radius_logo</title>
    <description>Created with Sketch (http://www.bohemiancoding.com/sketch)</description>
    <defs></defs>
    <g id="Page-1" stroke="none" stroke-width="1" fill="none" fill-rule="evenodd" sketch:type="MSPage">
        <g id="logo_single" sketch:type="MSLayerGroup" transform="translate(0.000000, 1.000000)" fill="#FFFFFF">
            <g id="Group" sketch:type="MSShapeGroup">
                <g id="Shape">
                    <path d="M42.896,19.261 C42.896,9.38 38.179,1.924 24.025,1.924 L0.099,1.924 L0.099,56.793 L10.963,56.793 L10.963,36.71 L23.254,36.71 L33.677,56.793 L46.85,56.793 L34.119,34.842 C40.043,31.882 42.896,25.955 42.896,19.261 L42.896,19.261 Z M23.584,26.501 L10.963,26.501 L10.963,12.24 L23.584,12.24 C30.28,12.24 31.483,15.423 31.483,19.37 C31.484,23.322 30.28,26.501 23.584,26.501 L23.584,26.501 Z"></path>
                    <path d="M78.286,1.887 L55.707,56.793 L67.264,56.793 L71.758,44.805 L92.203,44.805 L96.804,56.793 L108.365,56.793 L85.782,1.887 L78.286,1.887 L78.286,1.887 Z M75.293,35.71 L82.036,18.049 L88.671,35.71 L75.293,35.71 L75.293,35.71 Z"></path>
                    <path d="M141.52,46.478 L132.951,46.478 L132.951,12.24 L141.52,12.24 L141.618,12.24 C142.431,8.745 143.495,5.337 144.787,2.05 C143.704,1.964 142.575,1.924 141.404,1.924 L122.198,1.924 L122.198,56.793 L141.404,56.793 C142.687,56.793 143.904,56.732 145.08,56.64 C143.75,53.364 142.644,49.967 141.789,46.468 C141.696,46.468 141.617,46.478 141.52,46.478 L141.52,46.478 Z"></path>
                    <path d="M330.498,13.443 L330.498,3.35 C324.791,0.934 317.553,0.496 312.172,0.496 C311.055,0.496 309.996,0.538 308.965,0.597 C310.358,3.921 311.512,7.374 312.414,10.931 C319.168,10.957 325.098,11.719 330.498,13.443 L330.498,13.443 Z"></path>
                    <path d="M314.447,23.831 C314.568,25.532 314.642,27.244 314.642,28.975 C314.642,30.656 314.568,32.332 314.456,33.992 C320.181,34.908 322.161,36.627 322.161,40.116 C322.161,44.359 319.513,47.073 312.235,47.668 C311.286,51.301 310.059,54.824 308.592,58.211 C308.674,58.211 308.785,58.221 308.879,58.221 C326.871,58.221 333.016,49.769 333.016,40.001 C333.018,29.99 328.166,25.521 314.447,23.831 L314.447,23.831 Z"></path>
                </g>
                <g transform="translate(148.000000, 1.000000)">
                    <path d="M26.498,28.361 C26.498,12.601 19.733,2.259 3.218,1.049 C1.922,4.336 0.858,7.744 0.044,11.239 C12.028,11.276 15.635,18.069 15.635,28.36 C15.635,38.589 12.061,45.355 0.216,45.466 C1.076,48.965 2.177,52.362 3.511,55.638 C19.807,54.315 26.498,44.019 26.498,28.361 L26.498,28.361 Z" id="Shape"></path>
                    <rect id="Rectangle" x="43.545" y="1" width="10.752" height="54.869"></rect>
                    <path d="M108.883,37.577 C108.883,44.268 103.828,46.797 96.151,46.797 C88.475,46.797 83.421,44.269 83.421,37.577 L83.421,0.924 L72.118,0.924 L72.118,37.577 C72.118,49.65 79.47,57.22 96.151,57.22 C112.835,57.22 120.184,49.651 120.184,37.577 L120.184,0.924 L108.883,0.924 L108.883,37.577 L108.883,37.577 Z" id="Shape"></path>
                    <path d="M134.691,17.38 C134.691,27.374 140.183,31.105 156.318,32.526 C157.72,32.652 158.92,32.81 160.025,32.991 C160.138,31.332 160.213,29.655 160.213,27.974 C160.213,26.244 160.139,24.532 160.018,22.83 C159.145,22.726 158.25,22.628 157.303,22.545 C148.744,21.769 145.342,20.788 145.342,16.834 C145.342,12.229 148.522,9.924 157.627,9.924 C157.748,9.924 157.859,9.931 157.981,9.931 C157.081,6.374 155.938,2.921 154.534,-0.403 C140.156,0.508 134.691,7.652 134.691,17.38 L134.691,17.38 Z" id="Shape"></path>
                    <path d="M154.562,46.797 C147.423,46.797 139.3,45.37 135.685,44.046 L135.685,54.372 C138.919,55.769 148.623,57.163 154.162,57.21 C155.631,53.823 156.855,50.3 157.812,46.667 C156.811,46.75 155.742,46.797 154.562,46.797 L154.562,46.797 Z" id="Shape"></path>
                </g>
                <path d="M344.893,-0.204 C346.071,-0.204 347.217,0.098 348.342,0.702 C349.461,1.306 350.334,2.171 350.963,3.295 C351.584,4.419 351.901,5.591 351.901,6.813 C351.901,8.021 351.594,9.182 350.971,10.298 C350.358,11.412 349.494,12.277 348.379,12.896 C347.272,13.511 346.108,13.82 344.893,13.82 C343.676,13.82 342.514,13.511 341.399,12.896 C340.294,12.278 339.424,11.413 338.807,10.298 C338.184,9.182 337.877,8.021 337.877,6.813 C337.877,5.591 338.193,4.419 338.816,3.295 C339.447,2.171 340.32,1.306 341.445,0.702 C342.564,0.098 343.715,-0.204 344.893,-0.204 L344.893,-0.204 Z M344.893,0.957 C343.909,0.957 342.952,1.208 342.012,1.715 C341.082,2.219 340.354,2.942 339.828,3.88 C339.299,4.819 339.039,5.795 339.039,6.813 C339.039,7.822 339.299,8.791 339.81,9.717 C340.33,10.642 341.054,11.364 341.984,11.882 C342.914,12.399 343.88,12.658 344.892,12.658 C345.902,12.658 346.872,12.398 347.802,11.882 C348.732,11.364 349.45,10.642 349.968,9.717 C350.478,8.79 350.738,7.821 350.738,6.813 C350.738,5.795 350.478,4.82 349.949,3.88 C349.429,2.942 348.699,2.219 347.765,1.715 C346.826,1.208 345.869,0.957 344.893,0.957 L344.893,0.957 Z M341.816,10.688 L341.816,3.142 L344.41,3.142 C345.293,3.142 345.933,3.211 346.334,3.351 C346.73,3.491 347.045,3.732 347.281,4.08 C347.513,4.427 347.635,4.796 347.635,5.186 C347.635,5.736 347.44,6.217 347.039,6.625 C346.648,7.034 346.129,7.263 345.478,7.313 C345.744,7.424 345.958,7.556 346.119,7.712 C346.424,8.01 346.795,8.507 347.234,9.208 L348.156,10.686 L346.668,10.686 L346,9.498 C345.471,8.562 345.047,7.977 344.727,7.742 C344.504,7.567 344.178,7.481 343.75,7.481 L343.035,7.481 L343.035,10.687 L341.816,10.687 L341.816,10.688 Z M343.035,6.44 L344.512,6.44 C345.219,6.44 345.701,6.334 345.953,6.125 C346.213,5.913 346.344,5.634 346.344,5.288 C346.344,5.065 346.278,4.866 346.158,4.689 C346.033,4.512 345.859,4.379 345.637,4.293 C345.424,4.204 345.014,4.162 344.42,4.162 L343.035,4.162 L343.035,6.44 L343.035,6.44 Z" id="Shape"></path>
            </g>
        </g>
    </g>
</svg>